<svg xmlns="http://www.w3.org/2000/svg" xmlns:xlink="http://www.w3.org/1999/xlink" version="1.1" x="0px" y="0px" viewBox="0 0 100 125" style="enable-background:new 0 0 100 100;" xml:space="preserve"><path d="M50,5C25.1469727,5,5,25.1469727,5,50c0,24.8529663,20.1469727,45,45,45s45-20.1470337,45-45  C95,25.1469727,74.8530273,5,50,5z M25.5963135,25.7098389c0.913208-1.0396729,1.9862671-1.9884033,3.2108154-2.9475708  c1.3622437-1.0671387,3.3064575-0.9609985,4.5300903,0.2626343l9.3753052,9.3752441  c1.3378906,1.3378906,1.1774902,3.3466797-0.1604004,4.6845703c0,0-2.0475464,2.0430908-2.7797852,2.7714844  c-0.1419067,0.1411743-0.3701172,0.1396484-0.5116577-0.0018921L25.6158447,26.2094727  C25.4801636,26.0737915,25.4696655,25.8540039,25.5963135,25.7098389z M72.0183716,75.9267578  c-0.3895264,0.269104-0.7946167,0.5189209-1.2202148,0.7481079c-3.6167603,1.9475098-9.1417236,1.1226807-9.1417236,1.1226807  c-12.8305664-1.9245605-24.6988525-14.755127-24.6988525-14.755127s-12.8305664-11.8682861-14.755127-24.6988525  c0,0-0.8248291-5.5249634,1.1226807-9.1417847c0.229187-0.4255371,0.4790039-0.8306274,0.7481079-1.2201538  c0.1271362-0.184021,0.3918457-0.2052612,0.5496216-0.0467529c1.8005981,1.8092651,11.1242676,11.2023315,12.9329224,13.0244751  c0.1559448,0.1570435,0.1364746,0.4111328-0.0419922,0.5420532c-0.6586914,0.4832764-2.0383301,1.6755981-2.1600342,3.2574463  c-0.2227783,2.8961182,2.9338989,8.3869019,7.2172241,12.670166c5.00177,5.00177,9.7740479,7.4400024,12.670166,7.2172241  c1.5818481-0.1217041,2.7741699-1.5013428,3.2574463-2.1600342c0.1309204-0.1784668,0.3850098-0.197937,0.5420532-0.0419922  c1.8221436,1.8086548,11.21521,11.1323242,13.0244751,12.9329224  C72.2236328,75.5349121,72.2023926,75.7996216,72.0183716,75.9267578z M77.2377319,71.1928711  c-0.9591675,1.2245483-1.9078979,2.2976074-2.9475708,3.2108154c-0.144165,0.1266479-0.3639526,0.1161499-0.4996338-0.0195312  L60.1456909,60.7393188c-0.1415405-0.1415405-0.1430664-0.369751-0.0018921-0.5116577  c0.7283936-0.7322388,2.7714844-2.7797852,2.7714844-2.7797852c1.3378906-1.3378906,3.3466797-1.498291,4.6845703-0.1604004  l9.3752441,9.3753052C78.1987305,67.8864136,78.3048706,69.8306274,77.2377319,71.1928711z"/><text x="0" y="115" fill="#000000" font-size="5px" font-weight="bold" font-family="'Helvetica Neue', Helvetica, Arial-Unicode, Arial, Sans-serif">Created by Brad</text><text x="0" y="120" fill="#000000" font-size="5px" font-weight="bold" font-family="'Helvetica Neue', Helvetica, Arial-Unicode, Arial, Sans-serif">from the Noun Project</text></svg>